<svg xmlns="http://www.w3.org/2000/svg" width="74.356" height="85" viewBox="0 0 74.356 85"><defs><style>.a{fill:#212326;}</style></defs><path class="a" d="M101.74,59.959h0a4.149,4.149,0,0,1-1.518-5.67A9.7,9.7,0,0,0,98.6,42.5a9.712,9.712,0,0,0,1.623-11.794,4.145,4.145,0,0,1,1.517-5.669h0a2.774,2.774,0,0,0-2.776-4.8,4.149,4.149,0,0,1-5.67-1.52,9.692,9.692,0,0,0-11.022-4.488,9.717,9.717,0,0,0-9.4-7.3,4.15,4.15,0,0,1-4.151-4.151,2.774,2.774,0,1,0-5.549,0,4.155,4.155,0,0,1-4.151,4.151,9.708,9.708,0,0,0-9.4,7.3A9.71,9.71,0,0,0,38.6,18.713a4.145,4.145,0,0,1-5.671,1.52,2.774,2.774,0,0,0-2.775,4.805h0a4.157,4.157,0,0,1,1.517,5.669A9.687,9.687,0,0,0,33.3,42.495a9.71,9.71,0,0,0-1.623,11.794,4.15,4.15,0,0,1-1.518,5.67,2.774,2.774,0,0,0,2.773,4.806l.005,0A4.157,4.157,0,0,1,38.6,66.283a9.691,9.691,0,0,0,11.023,4.49,9.717,9.717,0,0,0,9.4,7.3,4.15,4.15,0,0,1,4.151,4.151,2.774,2.774,0,1,0,5.549,0,4.155,4.155,0,0,1,4.151-4.151,9.709,9.709,0,0,0,9.4-7.3A9.71,9.71,0,0,0,93.3,66.283a4.15,4.15,0,0,1,5.67-1.518h0a2.774,2.774,0,0,0,2.774-4.805ZM82.82,19.97a4.145,4.145,0,0,1,5.67,1.518,9.633,9.633,0,0,0,5.889,4.52l.093.025a9.657,9.657,0,0,0,.943,7.45,4.151,4.151,0,0,1-1.519,5.67l-1.432.827A26.644,26.644,0,0,0,81.379,20.8ZM65.949,63.586A21.086,21.086,0,1,1,87.035,42.5,21.11,21.11,0,0,1,65.949,63.586Zm-9.86-49.9a4.124,4.124,0,0,1,2.935-1.215,9.67,9.67,0,0,0,6.922-2.911l.07.07a9.636,9.636,0,0,0,6.859,2.841,4.155,4.155,0,0,1,4.151,4.151v1.656a26.607,26.607,0,0,0-22.151,0V16.623A4.13,4.13,0,0,1,56.089,13.688ZM36.483,33.483a9.673,9.673,0,0,0,.938-7.45,9.741,9.741,0,0,0,5.987-4.544,4.149,4.149,0,0,1,5.669-1.519l1.44.832A26.645,26.645,0,0,0,39.433,39.98L38,39.153a4.145,4.145,0,0,1-1.518-5.67ZM49.078,65.028a4.145,4.145,0,0,1-5.67-1.519,9.673,9.673,0,0,0-5.985-4.538,9.671,9.671,0,0,0-.94-7.456A4.149,4.149,0,0,1,38,45.846l1.431-.826A26.645,26.645,0,0,0,50.517,64.2ZM75.81,71.31a4.124,4.124,0,0,1-2.935,1.215,9.669,9.669,0,0,0-6.922,2.911l-.07-.07a9.636,9.636,0,0,0-6.859-2.841,4.155,4.155,0,0,1-4.151-4.151V66.721a26.608,26.608,0,0,0,22.151,0v1.655A4.13,4.13,0,0,1,75.81,71.31Zm19.606-19.8a9.635,9.635,0,0,0-.97,7.361l.026.093a9.726,9.726,0,0,0-5.981,4.54,4.155,4.155,0,0,1-5.672,1.518L81.379,64.2A26.644,26.644,0,0,0,92.464,45.019l1.433.828a4.15,4.15,0,0,1,1.519,5.669Z" transform="translate(-28.77 0.001)"/><path class="a" d="M154.151,136.994a17.162,17.162,0,1,0,17.162,17.162A17.181,17.181,0,0,0,154.151,136.994Zm0,28.775a11.613,11.613,0,1,1,11.613-11.613A11.627,11.627,0,0,1,154.151,165.769Z" transform="translate(-116.973 -111.655)"/><path class="a" d="M217.547,214.779a2.775,2.775,0,1,0,1.962.814A2.784,2.784,0,0,0,217.547,214.779Z" transform="translate(-180.37 -175.053)"/></svg>