<svg xmlns="http://www.w3.org/2000/svg" width="97.063" height="85" viewBox="0 0 97.063 85"><defs><style>.a{fill:#212326;}</style></defs><path class="a" d="M96.642,109.115,82.294,84.264a19.492,19.492,0,0,0-16.4-9.842A19.492,19.492,0,0,0,65.6,55.244L51.249,30.392a3.139,3.139,0,0,0-5.437,0L31.465,55.244a19.493,19.493,0,0,0-.294,19.177,19.493,19.493,0,0,0-16.4,9.843L.421,109.115a3.139,3.139,0,0,0,2.718,4.708h28.7a19.491,19.491,0,0,0,16.7-9.24,19.491,19.491,0,0,0,16.7,9.24h28.7a3.139,3.139,0,0,0,2.718-4.708ZM36.9,58.382l11.63-20.143,11.63,20.143a13.429,13.429,0,1,1-23.26,0Zm6.562,42.449a13.292,13.292,0,0,1-11.63,6.714H8.575L20.2,87.4a13.429,13.429,0,1,1,23.259,13.429Zm21.764,6.714A13.429,13.429,0,1,1,76.857,87.4l11.63,20.143Z" transform="translate(0 -28.823)"/><path class="a" d="M121.591,302.233a8.083,8.083,0,1,0,8.083,8.083A8.092,8.092,0,0,0,121.591,302.233Zm0,9.888a1.805,1.805,0,1,1,1.805-1.806A1.807,1.807,0,0,1,121.591,312.121Z" transform="translate(-89.757 -245.022)"/><path class="a" d="M281.179,302.233a8.083,8.083,0,1,0,8.083,8.083A8.092,8.092,0,0,0,281.179,302.233Zm0,9.888a1.805,1.805,0,1,1,1.805-1.806A1.808,1.808,0,0,1,281.179,312.121Z" transform="translate(-215.951 -245.022)"/><path class="a" d="M201.384,179.712a8.083,8.083,0,1,0-8.083-8.083A8.092,8.092,0,0,0,201.384,179.712Zm0-9.888a1.805,1.805,0,1,1-1.805,1.805A1.808,1.808,0,0,1,201.384,169.823Z" transform="translate(-152.853 -135.355)"/></svg>