<svg xmlns="http://www.w3.org/2000/svg" width="85" height="85" viewBox="0 0 85 85"><defs><style>.a{fill:#212326;}</style></defs><path class="a" d="M101.132,72.417a28.715,28.715,0,1,0,28.715,28.715A28.747,28.747,0,0,0,101.132,72.417Zm22.976,29.859a21.366,21.366,0,0,1-6.215,13.992l-.043.043a16.619,16.619,0,0,1-23.475,0,12.723,12.723,0,0,1,0-17.973,9.607,9.607,0,0,1,13.571,0,7.114,7.114,0,0,1,0,10.049,5.121,5.121,0,0,1-6.719.448,4.276,4.276,0,0,1-1.54-2.8,3.5,3.5,0,0,1,.969-2.567,2.938,2.938,0,0,0,.236-3.905,2.856,2.856,0,0,0-4.215-.193,9.23,9.23,0,0,0,0,13.054,10.837,10.837,0,0,0,15.308,0,12.831,12.831,0,0,0,0-18.125,15.324,15.324,0,0,0-21.647,0,18.44,18.44,0,0,0,0,26.049,22.391,22.391,0,0,0,2.734,2.326,23,23,0,1,1,31.066-21.545Q124.135,101.707,124.107,102.276Z" transform="translate(-58.632 -58.632)"/><path class="a" d="M211.116,12.282a2.855,2.855,0,0,0,2.856-2.855V2.855a2.855,2.855,0,0,0-5.711,0V9.427A2.855,2.855,0,0,0,211.116,12.282Z" transform="translate(-168.616 0)"/><path class="a" d="M211.116,382a2.855,2.855,0,0,0-2.855,2.856v6.572a2.855,2.855,0,0,0,5.711,0v-6.572A2.856,2.856,0,0,0,211.116,382Z" transform="translate(-168.616 -309.282)"/><path class="a" d="M107.8,37.874a2.855,2.855,0,1,0,4.945-2.855l-3.286-5.691a2.855,2.855,0,1,0-4.946,2.855Z" transform="translate(-84.307 -22.589)"/><path class="a" d="M300.457,360.15a2.855,2.855,0,1,0-4.945,2.855L298.8,368.7a2.855,2.855,0,1,0,4.946-2.856Z" transform="translate(-238.948 -290.435)"/><path class="a" d="M29.327,109.457l5.691,3.286a2.855,2.855,0,0,0,2.855-4.946l-5.691-3.286a2.855,2.855,0,0,0-2.855,4.946Z" transform="translate(-22.588 -84.306)"/><path class="a" d="M368.7,298.8,363,295.511a2.855,2.855,0,0,0-2.855,4.946l5.691,3.286A2.855,2.855,0,1,0,368.7,298.8Z" transform="translate(-290.435 -238.947)"/><path class="a" d="M12.282,211.116a2.855,2.855,0,0,0-2.855-2.855H2.855a2.855,2.855,0,0,0,0,5.711H9.427A2.856,2.856,0,0,0,12.282,211.116Z" transform="translate(0 -168.616)"/><path class="a" d="M391.427,208.261h-6.572a2.855,2.855,0,1,0,0,5.711h6.572a2.855,2.855,0,0,0,0-5.711Z" transform="translate(-309.282 -168.616)"/><path class="a" d="M35.019,295.512,29.328,298.8a2.855,2.855,0,1,0,2.855,4.946l5.691-3.286a2.855,2.855,0,1,0-2.855-4.945Z" transform="translate(-22.589 -238.948)"/><path class="a" d="M361.579,113.128a2.841,2.841,0,0,0,1.425-.383l5.691-3.286a2.855,2.855,0,1,0-2.855-4.946l-5.691,3.286a2.856,2.856,0,0,0,1.43,5.329Z" transform="translate(-290.434 -84.308)"/><path class="a" d="M111.7,359.1a2.855,2.855,0,0,0-3.9,1.045l-3.286,5.691a2.855,2.855,0,1,0,4.946,2.855L112.743,363A2.856,2.856,0,0,0,111.7,359.1Z" transform="translate(-84.307 -290.434)"/><path class="a" d="M296.556,38.92a2.854,2.854,0,0,0,3.9-1.045l3.286-5.691a2.855,2.855,0,1,0-4.945-2.855l-3.286,5.691A2.856,2.856,0,0,0,296.556,38.92Z" transform="translate(-238.948 -22.589)"/></svg>