<svg xmlns="http://www.w3.org/2000/svg" width="52.678" height="85" viewBox="0 0 52.678 85"><defs><style>.a{fill:#212326;}</style></defs><path class="a" d="M99.063,33.065V42.6a18.771,18.771,0,1,0,37.543,0V33.065a38.223,38.223,0,0,1,6.666-21.613,2.707,2.707,0,0,0-2.237-4.232,25.742,25.742,0,0,0-12.611,3.286L119.8.9a2.707,2.707,0,0,0-2.013-.9h0a2.707,2.707,0,0,0-2.013.9l-8.6,9.566A25.743,25.743,0,0,0,94.635,7.22,2.707,2.707,0,0,0,92.4,11.452,38.223,38.223,0,0,1,99.063,33.065ZM117.783,6.758l6.19,6.894a26.062,26.062,0,0,0-6.137,7.95,26.069,26.069,0,0,0-6.2-8.006Zm-2.655,26.369a2.707,2.707,0,1,0,5.415,0,20.53,20.53,0,0,1,15.368-19.844,43.6,43.6,0,0,0-4.719,19.782V42.6a13.357,13.357,0,1,1-26.713,0V33.065a43.6,43.6,0,0,0-4.719-19.782A20.53,20.53,0,0,1,115.127,33.127Z" transform="translate(-91.496)"/><path class="a" d="M131.1,336.186a9.44,9.44,0,0,0-9.429,9.43,2.707,2.707,0,1,0,5.415,0A4.019,4.019,0,0,1,131.1,341.6a5.7,5.7,0,0,1,5.695,5.7,7.8,7.8,0,0,1-7.8,7.8,10.433,10.433,0,0,1-10.421-10.421v-4.155a2.707,2.707,0,0,0-5.415,0v4.155a10.433,10.433,0,0,1-10.421,10.421,7.8,7.8,0,0,1-7.8-7.8,5.7,5.7,0,0,1,5.695-5.7,4.019,4.019,0,0,1,4.014,4.015,2.707,2.707,0,1,0,5.415,0,9.44,9.44,0,0,0-9.429-9.43,11.122,11.122,0,0,0-11.11,11.11,13.225,13.225,0,0,0,13.21,13.21,15.833,15.833,0,0,0,13.129-6.989A15.833,15.833,0,0,0,129,360.506a13.225,13.225,0,0,0,13.21-13.21A11.122,11.122,0,0,0,131.1,336.186Z" transform="translate(-89.536 -275.506)"/></svg>