<svg xmlns="http://www.w3.org/2000/svg" width="78.707" height="85" viewBox="0 0 78.707 85"><defs><style>.a{fill:#212326;}</style></defs><path class="a" d="M93.719,76.949a38.194,38.194,0,0,0-11.984,1.475,37.912,37.912,0,0,0-2.7-11.758,2.682,2.682,0,0,0-3.491-1.482,37.968,37.968,0,0,0-9.879,5.844,38,38,0,0,0-6.811-9.24,2.681,2.681,0,0,0-3.793,0,38,38,0,0,0-6.812,9.241,37.982,37.982,0,0,0-9.881-5.844,2.681,2.681,0,0,0-3.491,1.482,37.918,37.918,0,0,0-2.7,11.758,38.209,38.209,0,0,0-11.983-1.475A2.682,2.682,0,0,0,17.6,79.723,38.237,38.237,0,0,0,39.086,112.73a23.863,23.863,0,0,0-4.1,12.566,2.682,2.682,0,0,0,2.586,2.774c.27.009.547.014.849.014a23.818,23.818,0,0,0,10.209-2.3,38.038,38.038,0,0,0,6.426,8.527,2.681,2.681,0,0,0,3.793,0,38.044,38.044,0,0,0,6.426-8.527,23.817,23.817,0,0,0,10.21,2.3c.3,0,.58,0,.849-.014a2.682,2.682,0,0,0,2.586-2.774,23.864,23.864,0,0,0-4.1-12.567A38.235,38.235,0,0,0,96.306,79.723,2.681,2.681,0,0,0,93.719,76.949Zm-17.27,3.446A38.6,38.6,0,0,0,61.424,92.78a38.142,38.142,0,0,0-1.577-5.468A32.669,32.669,0,0,1,75,71.314,32.364,32.364,0,0,1,76.449,80.395ZM56.955,67.642A32.451,32.451,0,0,1,61.593,74.9,37.8,37.8,0,0,0,56.954,81.2,37.8,37.8,0,0,0,52.316,74.9,32.447,32.447,0,0,1,56.955,67.642ZM38.908,71.314a32.825,32.825,0,0,1,17.956,29.243c0,.044,0,.086,0,.129A38.013,38.013,0,0,0,47.53,87.171a38.231,38.231,0,0,0-10.071-6.777A32.363,32.363,0,0,1,38.908,71.314ZM23.179,82.33a32.829,32.829,0,0,1,30.879,28.794A32.829,32.829,0,0,1,23.179,82.33Zm21.049,32.448a37.9,37.9,0,0,0,8.13,1.606,18.537,18.537,0,0,1-11.678,6.2A18.475,18.475,0,0,1,44.228,114.778Zm12.727,13.677a32.479,32.479,0,0,1-3.757-5.5,23.9,23.9,0,0,0,3.757-3.7,23.9,23.9,0,0,0,3.757,3.7A32.469,32.469,0,0,1,56.955,128.456Zm16.275-5.873a18.537,18.537,0,0,1-11.678-6.2,37.907,37.907,0,0,0,8.129-1.606A18.486,18.486,0,0,1,73.23,122.582ZM59.849,111.125a32.785,32.785,0,0,1,30.88-28.8A32.828,32.828,0,0,1,59.849,111.125Z" transform="translate(-17.601 -50.095)"/><path class="a" d="M225.394,5.365a2.683,2.683,0,0,0,2.682-2.684,2.682,2.682,0,1,0-4.579,1.9A2.706,2.706,0,0,0,225.394,5.365Z" transform="translate(-186.04 0)"/><path class="a" d="M115.8,35.364a2.68,2.68,0,1,0-1.9-.785A2.7,2.7,0,0,0,115.8,35.364Z" transform="translate(-96.044 -24.636)"/><path class="a" d="M334.974,35.364a2.68,2.68,0,1,0-1.9-.785A2.7,2.7,0,0,0,334.974,35.364Z" transform="translate(-276.028 -24.636)"/></svg>