<svg xmlns="http://www.w3.org/2000/svg" width="91.305" height="85" viewBox="0 0 91.305 85"><defs><style>.a{fill:#212326;}</style></defs><path class="a" d="M45.838,88.573a27.409,27.409,0,0,0-6.472-3.915,18.754,18.754,0,1,0-31.117-14.1,3.578,3.578,0,0,0,7.157,0,11.6,11.6,0,1,1,11.6,11.6,3.578,3.578,0,0,0,0,7.157c10.946,0,19.851,6.981,19.851,15.561s-8.905,15.561-19.851,15.561-19.851-6.98-19.851-15.561a3.578,3.578,0,0,0-7.157,0c0,6.207,2.9,12,8.177,16.3A29.737,29.737,0,0,0,27.008,127.6a29.736,29.736,0,0,0,18.831-6.413c5.273-4.307,8.177-10.1,8.177-16.3S51.111,92.881,45.838,88.573Z" transform="translate(0 -42.596)"/><path class="a" d="M228.443,126.5a18.635,18.635,0,0,0-13.25,5.48l-9.382,9.19a3.578,3.578,0,0,0,5.008,5.112l9.393-9.2.026-.026a11.6,11.6,0,1,1,8.2,19.8,3.578,3.578,0,0,0,0,7.157,18.758,18.758,0,0,0,0-37.516Z" transform="translate(-155.897 -99.475)"/><path class="a" d="M224.621,66.483a27.817,27.817,0,0,0,19.8-8.206,3.578,3.578,0,1,0-5.061-5.06,20.827,20.827,0,0,1-29.474,0,3.578,3.578,0,0,0-5.06,5.06A27.816,27.816,0,0,0,224.621,66.483Z" transform="translate(-155.164 -42.876)"/><path class="a" d="M258.295,21.463a28.144,28.144,0,0,0,5.678.58,27.943,27.943,0,0,0,10.168-1.916,3.578,3.578,0,0,0-2.6-6.667,20.836,20.836,0,0,1-11.8.994,3.578,3.578,0,1,0-1.443,7.009Z" transform="translate(-194.502 -13.215)"/></svg>