<svg xmlns="http://www.w3.org/2000/svg" width="62.849" height="85" viewBox="0 0 62.849 85"><defs><style>.a{fill:#fff;}</style></defs><path class="a" d="M120.818,32.915a2.856,2.856,0,0,0-1.873-1.693,16.842,16.842,0,0,0-9.934.157V15.51A8.371,8.371,0,0,0,97.932,7.584a8.375,8.375,0,0,0-16.675,0A8.371,8.371,0,0,0,70.178,15.51V31.379a16.844,16.844,0,0,0-9.934-.157,2.86,2.86,0,0,0-1.675,4.205,49.479,49.479,0,0,1,5.587,22.964v1.171a25.438,25.438,0,0,0,50.877,0V58.391a49.482,49.482,0,0,1,5.584-22.959A2.856,2.856,0,0,0,120.818,32.915Zm-11.5,25.476v1.171a19.726,19.726,0,0,1-39.452,0V58.391a56.618,56.618,0,0,0-4.535-22.124,10.764,10.764,0,0,1,5.91,1.934,2.818,2.818,0,0,0,3.016.381,2.862,2.862,0,0,0,1.631-2.606V15.51a2.664,2.664,0,0,1,5.328,0V42.333a2.856,2.856,0,1,0,5.712,0V8.376a2.664,2.664,0,0,1,5.328,0V42.333a2.856,2.856,0,0,0,5.712,0V15.51a2.664,2.664,0,1,1,5.328,0V35.977a2.862,2.862,0,0,0,1.631,2.606,2.819,2.819,0,0,0,3.016-.381,10.76,10.76,0,0,1,5.91-1.934A56.607,56.607,0,0,0,109.32,58.391Z" transform="translate(-58.171)"/><path class="a" d="M136.916,267.778a2.856,2.856,0,0,0,0,4.039,22.277,22.277,0,0,0,31.5,0,2.856,2.856,0,0,0,0-4.039A22.3,22.3,0,0,0,136.916,267.778Zm12.507-.483a4.078,4.078,0,0,0,0,5.006,16.475,16.475,0,0,1-6.021-2.5A16.477,16.477,0,0,1,149.423,267.294Zm6.491,5.006a4.077,4.077,0,0,0,0-5.006,16.467,16.467,0,0,1,6.021,2.5A16.47,16.47,0,0,1,155.913,272.3Z" transform="translate(-121.245 -211.517)"/><path class="a" d="M61.06,122.1a2.854,2.854,0,1,0-2.02-.836A2.873,2.873,0,0,0,61.06,122.1Z" transform="translate(-58.198 -94.224)"/><path class="a" d="M361.06,122.1a2.854,2.854,0,1,0-2.02-.836A2.872,2.872,0,0,0,361.06,122.1Z" transform="translate(-301.075 -94.224)"/></svg>